<mxfile host="Electron" modified="2025-04-06T07:49:19.822Z" agent="Mozilla/5.0 (Windows NT 10.0; Win64; x64) AppleWebKit/537.36 (KHTML, like Gecko) draw.io/21.7.5 Chrome/114.0.5735.289 Electron/25.8.1 Safari/537.36" etag="-lGvQtOMCjwHF2Tu39wH" version="21.7.5" type="device">
  <diagram name="Page-1" id="b520641d-4fe3-3701-9064-5fc419738815">
    <mxGraphModel dx="4144" dy="2424" grid="1" gridSize="10" guides="1" tooltips="1" connect="1" arrows="1" fold="1" page="1" pageScale="1" pageWidth="1700" pageHeight="1100" background="none" math="0" shadow="0">
      <root>
        <mxCell id="0" />
        <mxCell id="1" parent="0" />
        <mxCell id="RB-j0TVdhuoM2auG_49P-1" value="&lt;font style=&quot;font-size: 12px;&quot;&gt;&lt;b&gt;&lt;u&gt;Source for Training Data&lt;/u&gt;&lt;/b&gt;&lt;/font&gt;" style="rounded=1;whiteSpace=wrap;html=1;fillColor=#f5f5f5;fontColor=#333333;strokeColor=#666666;verticalAlign=top;" vertex="1" parent="1">
          <mxGeometry x="160" y="179.79999999999995" width="960" height="320" as="geometry" />
        </mxCell>
        <mxCell id="RB-j0TVdhuoM2auG_49P-2" value="&lt;font style=&quot;&quot;&gt;&lt;font style=&quot;font-size: 12px;&quot;&gt;&lt;b&gt;&lt;u&gt;Data From The User&lt;/u&gt;&lt;/b&gt;&lt;/font&gt;&lt;br&gt;&lt;/font&gt;" style="rounded=1;whiteSpace=wrap;html=1;fillColor=#f5f5f5;strokeColor=#666666;fontColor=#333333;verticalAlign=bottom;" vertex="1" parent="1">
          <mxGeometry x="160" y="533.8" width="450" height="310" as="geometry" />
        </mxCell>
        <mxCell id="RB-j0TVdhuoM2auG_49P-3" value="Function -&amp;nbsp;wav_to_text_and_tokenize" style="swimlane;html=1;fontStyle=0;childLayout=stackLayout;horizontal=1;startSize=26;fillColor=#e0e0e0;horizontalStack=0;resizeParent=1;resizeLast=0;collapsible=1;marginBottom=0;swimlaneFillColor=#ffffff;align=center;rounded=1;shadow=0;comic=0;labelBackgroundColor=none;strokeWidth=1;fontFamily=Verdana;fontSize=12" vertex="1" parent="1">
          <mxGeometry x="202" y="565.8" width="250" height="60" as="geometry" />
        </mxCell>
        <mxCell id="RB-j0TVdhuoM2auG_49P-4" value="parmeter 1:&amp;nbsp;wav_file_path" style="text;html=1;strokeColor=none;fillColor=none;spacingLeft=4;spacingRight=4;whiteSpace=wrap;overflow=hidden;rotatable=0;points=[[0,0.5],[1,0.5]];portConstraint=eastwest;" vertex="1" parent="RB-j0TVdhuoM2auG_49P-3">
          <mxGeometry y="26" width="250" height="26" as="geometry" />
        </mxCell>
        <mxCell id="RB-j0TVdhuoM2auG_49P-5" value="" style="edgeStyle=orthogonalEdgeStyle;rounded=0;orthogonalLoop=1;jettySize=auto;html=1;" edge="1" parent="1" source="RB-j0TVdhuoM2auG_49P-6" target="RB-j0TVdhuoM2auG_49P-7">
          <mxGeometry relative="1" as="geometry" />
        </mxCell>
        <mxCell id="RB-j0TVdhuoM2auG_49P-6" value="&lt;font style=&quot;&quot;&gt;&lt;font style=&quot;font-size: 12px;&quot;&gt;Clustering Model&lt;br&gt;&lt;/font&gt;(Kmeans, Random Forest)&lt;br&gt;&lt;/font&gt;" style="rounded=1;whiteSpace=wrap;html=1;fillColor=#fad9d5;strokeColor=#ae4132;" vertex="1" parent="1">
          <mxGeometry x="715" y="682.8" width="176" height="56" as="geometry" />
        </mxCell>
        <mxCell id="RB-j0TVdhuoM2auG_49P-7" value="&lt;font style=&quot;font-size: 12px;&quot;&gt;&lt;b&gt;&lt;u&gt;Data Presentation&lt;/u&gt;&lt;/b&gt;&lt;br&gt;&lt;ul&gt;&lt;li&gt;&lt;font style=&quot;font-size: 12px;&quot;&gt;Scoring&lt;/font&gt;&lt;/li&gt;&lt;li&gt;&lt;font style=&quot;font-size: 12px;&quot;&gt;Stats&lt;/font&gt;&lt;/li&gt;&lt;li&gt;&lt;font style=&quot;font-size: 12px;&quot;&gt;Visualization&lt;/font&gt;&lt;/li&gt;&lt;/ul&gt;&lt;br&gt;&lt;/font&gt;" style="rounded=1;whiteSpace=wrap;html=1;fillColor=#CCE5FF;" vertex="1" parent="1">
          <mxGeometry x="1370" y="346.79999999999995" width="129" height="116" as="geometry" />
        </mxCell>
        <mxCell id="RB-j0TVdhuoM2auG_49P-8" value="" style="edgeStyle=orthogonalEdgeStyle;rounded=0;orthogonalLoop=1;jettySize=auto;html=1;entryX=0.5;entryY=0;entryDx=0;entryDy=0;startArrow=classic;startFill=1;exitX=0.5;exitY=0;exitDx=0;exitDy=0;" edge="1" parent="1" source="RB-j0TVdhuoM2auG_49P-7" target="RB-j0TVdhuoM2auG_49P-1">
          <mxGeometry relative="1" as="geometry">
            <mxPoint x="1700" y="169.79999999999995" as="sourcePoint" />
            <mxPoint x="740" y="-26.200000000000045" as="targetPoint" />
          </mxGeometry>
        </mxCell>
        <mxCell id="RB-j0TVdhuoM2auG_49P-9" value="&lt;b&gt;Text_Query.py&lt;/b&gt;" style="rounded=0;whiteSpace=wrap;html=1;verticalAlign=top;fillColor=#fff2cc;strokeColor=#d6b656;" vertex="1" parent="1">
          <mxGeometry x="394" y="314.79999999999995" width="696" height="139" as="geometry" />
        </mxCell>
        <mxCell id="RB-j0TVdhuoM2auG_49P-10" style="edgeStyle=orthogonalEdgeStyle;rounded=0;orthogonalLoop=1;jettySize=auto;html=1;exitX=1;exitY=0.5;exitDx=0;exitDy=0;entryX=0;entryY=0.5;entryDx=0;entryDy=0;" edge="1" parent="1" source="RB-j0TVdhuoM2auG_49P-11" target="RB-j0TVdhuoM2auG_49P-29">
          <mxGeometry relative="1" as="geometry" />
        </mxCell>
        <mxCell id="RB-j0TVdhuoM2auG_49P-11" value="Vectorize_Text&lt;br&gt;(TfidfVectorizer)" style="shape=process;whiteSpace=wrap;html=1;backgroundOutline=1;fillColor=#E0E0E0;" vertex="1" parent="1">
          <mxGeometry x="719" y="374.79999999999995" width="120" height="60" as="geometry" />
        </mxCell>
        <mxCell id="RB-j0TVdhuoM2auG_49P-12" style="edgeStyle=orthogonalEdgeStyle;rounded=0;orthogonalLoop=1;jettySize=auto;html=1;exitX=1;exitY=0.5;exitDx=0;exitDy=0;entryX=0;entryY=0.5;entryDx=0;entryDy=0;" edge="1" parent="1" source="RB-j0TVdhuoM2auG_49P-13" target="RB-j0TVdhuoM2auG_49P-27">
          <mxGeometry relative="1" as="geometry" />
        </mxCell>
        <mxCell id="RB-j0TVdhuoM2auG_49P-13" value="Extracted_Text" style="shape=process;whiteSpace=wrap;html=1;backgroundOutline=1;fillColor=#E0E0E0;" vertex="1" parent="1">
          <mxGeometry x="420" y="374.79999999999995" width="120" height="60" as="geometry" />
        </mxCell>
        <mxCell id="RB-j0TVdhuoM2auG_49P-14" value="&lt;b&gt;www.nhtsa.gov&lt;/b&gt;" style="rounded=0;whiteSpace=wrap;html=1;verticalAlign=top;fillColor=#d5e8d4;strokeColor=#82b366;" vertex="1" parent="1">
          <mxGeometry x="185" y="223.79999999999995" width="180" height="230" as="geometry" />
        </mxCell>
        <mxCell id="RB-j0TVdhuoM2auG_49P-15" value="Recall.txt" style="html=1;rounded=0;shadow=0;comic=0;labelBackgroundColor=none;strokeWidth=2;fontFamily=Verdana;fontSize=12;align=center;shape=mxgraph.ios7ui.horLines;" vertex="1" parent="1">
          <mxGeometry x="208" y="379.79999999999995" width="135" height="50" as="geometry" />
        </mxCell>
        <mxCell id="RB-j0TVdhuoM2auG_49P-16" value="Complaints.txt" style="html=1;rounded=0;shadow=0;comic=0;labelBackgroundColor=none;strokeWidth=2;fontFamily=Verdana;fontSize=12;align=center;shape=mxgraph.ios7ui.horLines;" vertex="1" parent="1">
          <mxGeometry x="208" y="258.79999999999995" width="135" height="50" as="geometry" />
        </mxCell>
        <mxCell id="RB-j0TVdhuoM2auG_49P-17" value="" style="edgeStyle=orthogonalEdgeStyle;html=1;labelBackgroundColor=none;startFill=0;startSize=8;endFill=1;endSize=8;fontFamily=Verdana;fontSize=12;" edge="1" parent="1" source="RB-j0TVdhuoM2auG_49P-16">
          <mxGeometry relative="1" as="geometry">
            <Array as="points">
              <mxPoint x="374" y="283.79999999999995" />
              <mxPoint x="374" y="400.79999999999995" />
            </Array>
            <mxPoint x="319" y="169.79999999999995" as="sourcePoint" />
            <mxPoint x="414" y="400.79999999999995" as="targetPoint" />
          </mxGeometry>
        </mxCell>
        <mxCell id="RB-j0TVdhuoM2auG_49P-18" style="edgeStyle=orthogonalEdgeStyle;html=1;labelBackgroundColor=none;startFill=0;startSize=8;endFill=1;endSize=8;fontFamily=Verdana;fontSize=12;exitX=0.993;exitY=0.434;exitDx=0;exitDy=0;exitPerimeter=0;" edge="1" parent="1" source="RB-j0TVdhuoM2auG_49P-15">
          <mxGeometry relative="1" as="geometry">
            <Array as="points">
              <mxPoint x="398" y="400.79999999999995" />
              <mxPoint x="398" y="401.79999999999995" />
            </Array>
            <mxPoint x="434" y="400.79999999999995" as="sourcePoint" />
            <mxPoint x="414" y="400.79999999999995" as="targetPoint" />
          </mxGeometry>
        </mxCell>
        <mxCell id="RB-j0TVdhuoM2auG_49P-19" value="&lt;b&gt;streamlit_GUI.py&lt;/b&gt;" style="rounded=0;whiteSpace=wrap;html=1;verticalAlign=bottom;fillColor=#d5e8d4;strokeColor=#82b366;" vertex="1" parent="1">
          <mxGeometry x="217.5" y="653.8" width="342.5" height="130" as="geometry" />
        </mxCell>
        <mxCell id="RB-j0TVdhuoM2auG_49P-20" value="Recorded_Audio.wav" style="html=1;rounded=0;shadow=0;comic=0;labelBackgroundColor=none;strokeWidth=2;fontFamily=Verdana;fontSize=12;align=center;shape=mxgraph.ios7ui.horLines;" vertex="1" parent="1">
          <mxGeometry x="240" y="684.8" width="135" height="50" as="geometry" />
        </mxCell>
        <mxCell id="RB-j0TVdhuoM2auG_49P-21" value="Extracted_Text" style="shape=process;whiteSpace=wrap;html=1;backgroundOutline=1;fillColor=#E0E0E0;" vertex="1" parent="1">
          <mxGeometry x="421" y="678.8" width="120" height="60" as="geometry" />
        </mxCell>
        <mxCell id="RB-j0TVdhuoM2auG_49P-22" style="edgeStyle=orthogonalEdgeStyle;html=1;labelBackgroundColor=none;startFill=0;startSize=8;endFill=1;endSize=8;fontFamily=Verdana;fontSize=12;exitX=0.512;exitY=-0.051;exitDx=0;exitDy=0;exitPerimeter=0;" edge="1" parent="1" source="RB-j0TVdhuoM2auG_49P-20">
          <mxGeometry relative="1" as="geometry">
            <Array as="points" />
            <mxPoint x="318" y="438.79999999999995" as="sourcePoint" />
            <mxPoint x="309" y="631.8" as="targetPoint" />
          </mxGeometry>
        </mxCell>
        <mxCell id="RB-j0TVdhuoM2auG_49P-23" style="edgeStyle=orthogonalEdgeStyle;html=1;labelBackgroundColor=none;startFill=0;startSize=8;endFill=1;endSize=8;fontFamily=Verdana;fontSize=12;entryX=0.5;entryY=0;entryDx=0;entryDy=0;exitX=1;exitY=0.5;exitDx=0;exitDy=0;" edge="1" parent="1" source="RB-j0TVdhuoM2auG_49P-4" target="RB-j0TVdhuoM2auG_49P-21">
          <mxGeometry relative="1" as="geometry">
            <Array as="points" />
            <mxPoint x="906" y="607.8" as="sourcePoint" />
            <mxPoint x="930" y="444.79999999999995" as="targetPoint" />
          </mxGeometry>
        </mxCell>
        <mxCell id="RB-j0TVdhuoM2auG_49P-24" style="edgeStyle=orthogonalEdgeStyle;html=1;labelBackgroundColor=none;startFill=0;startSize=8;endFill=1;endSize=8;fontFamily=Verdana;fontSize=12;entryX=0;entryY=0.5;entryDx=0;entryDy=0;" edge="1" parent="1" source="RB-j0TVdhuoM2auG_49P-21" target="RB-j0TVdhuoM2auG_49P-6">
          <mxGeometry relative="1" as="geometry">
            <Array as="points" />
            <mxPoint x="1200" y="790.8" as="sourcePoint" />
            <mxPoint x="1152" y="413.79999999999995" as="targetPoint" />
          </mxGeometry>
        </mxCell>
        <mxCell id="RB-j0TVdhuoM2auG_49P-25" value="Predict/ Query" style="edgeLabel;html=1;align=center;verticalAlign=middle;resizable=0;points=[];" vertex="1" connectable="0" parent="RB-j0TVdhuoM2auG_49P-24">
          <mxGeometry x="-0.0065" y="-1" relative="1" as="geometry">
            <mxPoint x="27" y="-2" as="offset" />
          </mxGeometry>
        </mxCell>
        <mxCell id="RB-j0TVdhuoM2auG_49P-26" style="edgeStyle=orthogonalEdgeStyle;rounded=0;orthogonalLoop=1;jettySize=auto;html=1;exitX=1;exitY=0.5;exitDx=0;exitDy=0;entryX=0;entryY=0.5;entryDx=0;entryDy=0;" edge="1" parent="1" source="RB-j0TVdhuoM2auG_49P-27" target="RB-j0TVdhuoM2auG_49P-11">
          <mxGeometry relative="1" as="geometry" />
        </mxCell>
        <mxCell id="RB-j0TVdhuoM2auG_49P-27" value="Tokenize_Text&lt;br&gt;(NLTK)" style="shape=process;whiteSpace=wrap;html=1;backgroundOutline=1;fillColor=#E0E0E0;" vertex="1" parent="1">
          <mxGeometry x="569" y="374.79999999999995" width="120" height="60" as="geometry" />
        </mxCell>
        <mxCell id="RB-j0TVdhuoM2auG_49P-28" style="edgeStyle=orthogonalEdgeStyle;rounded=0;orthogonalLoop=1;jettySize=auto;html=1;exitX=1;exitY=0.5;exitDx=0;exitDy=0;entryX=0;entryY=0.5;entryDx=0;entryDy=0;" edge="1" parent="1" source="RB-j0TVdhuoM2auG_49P-29" target="RB-j0TVdhuoM2auG_49P-32">
          <mxGeometry relative="1" as="geometry" />
        </mxCell>
        <mxCell id="RB-j0TVdhuoM2auG_49P-29" value="Dimensionality_Reduction&lt;br&gt;(TruncatedSVD)" style="shape=process;whiteSpace=wrap;html=1;backgroundOutline=1;fillColor=#E0E0E0;" vertex="1" parent="1">
          <mxGeometry x="864" y="374.79999999999995" width="200" height="60" as="geometry" />
        </mxCell>
        <mxCell id="RB-j0TVdhuoM2auG_49P-30" style="edgeStyle=orthogonalEdgeStyle;html=1;labelBackgroundColor=none;startFill=0;startSize=8;endFill=1;endSize=8;fontFamily=Verdana;fontSize=12;entryX=0.5;entryY=1;entryDx=0;entryDy=0;exitX=1;exitY=0.5;exitDx=0;exitDy=0;" edge="1" parent="1" source="RB-j0TVdhuoM2auG_49P-4" target="RB-j0TVdhuoM2auG_49P-13">
          <mxGeometry relative="1" as="geometry">
            <Array as="points" />
            <mxPoint x="318" y="438.79999999999995" as="sourcePoint" />
            <mxPoint x="318" y="561.8" as="targetPoint" />
          </mxGeometry>
        </mxCell>
        <mxCell id="RB-j0TVdhuoM2auG_49P-31" style="edgeStyle=orthogonalEdgeStyle;rounded=0;orthogonalLoop=1;jettySize=auto;html=1;exitX=1;exitY=0.5;exitDx=0;exitDy=0;entryX=0;entryY=0.5;entryDx=0;entryDy=0;" edge="1" parent="1" source="RB-j0TVdhuoM2auG_49P-32" target="RB-j0TVdhuoM2auG_49P-7">
          <mxGeometry relative="1" as="geometry" />
        </mxCell>
        <mxCell id="RB-j0TVdhuoM2auG_49P-32" value="&lt;font style=&quot;font-size: 12px;&quot;&gt;&lt;font style=&quot;font-size: 12px;&quot;&gt;Cosine Similarity&lt;br&gt;(find_similar_complaint&lt;/font&gt;&lt;span style=&quot;background-color: initial;&quot;&gt;)&lt;/span&gt;&lt;/font&gt;" style="rounded=1;whiteSpace=wrap;html=1;fillColor=#fad9d5;strokeColor=#ae4132;" vertex="1" parent="1">
          <mxGeometry x="1148" y="359.79999999999995" width="156" height="90" as="geometry" />
        </mxCell>
        <mxCell id="RB-j0TVdhuoM2auG_49P-33" style="edgeStyle=orthogonalEdgeStyle;html=1;labelBackgroundColor=none;startFill=0;startSize=8;endFill=1;endSize=8;fontFamily=Verdana;fontSize=12;exitX=0.5;exitY=1;exitDx=0;exitDy=0;" edge="1" parent="1" source="RB-j0TVdhuoM2auG_49P-11" target="RB-j0TVdhuoM2auG_49P-6">
          <mxGeometry relative="1" as="geometry">
            <Array as="points">
              <mxPoint x="803" y="434.79999999999995" />
            </Array>
            <mxPoint x="906" y="607.8" as="sourcePoint" />
            <mxPoint x="780" y="633.8" as="targetPoint" />
          </mxGeometry>
        </mxCell>
        <mxCell id="RB-j0TVdhuoM2auG_49P-34" value="Training/ Test/ Validation Data" style="edgeLabel;html=1;align=center;verticalAlign=middle;resizable=0;points=[];" vertex="1" connectable="0" parent="RB-j0TVdhuoM2auG_49P-33">
          <mxGeometry x="-0.0065" y="-1" relative="1" as="geometry">
            <mxPoint x="1" y="-1" as="offset" />
          </mxGeometry>
        </mxCell>
      </root>
    </mxGraphModel>
  </diagram>
</mxfile>
